# xmcd
#
# Track frame offsets:
#	150
#	17954
#	36053
#	53703
#	74323
#	91613
#	112037
#	132742
#	151737
#	171112
#
# Disc length: 2529 seconds
#
# Revision: 0
# Processed by: cddbd v1.5.2PL0 Copyright (c) Steve Scherf et al.
# Submitted via: EasyCDDAExtractor 16.0.6.1
#
DISCID=7e09df0a
DTITLE=Αντώνης Ρέμος - Best Of Cd5
DYEAR=2012
DGENRE=Λαϊκά
TTITLE0=Σαν άνεμος (Αντώνης Ρέμος and Μαρινέλλα)
TTITLE1=Που να΄σαι (Αντώνης Ρέμος)
TTITLE2=Κάθε φορά που σε θυμάμαι (Αντώνης Ρέμος)
TTITLE3=Μείνε λίγο στη γραμμή (Αντώνης Ρέμος)
TTITLE4=Τρέμω (Αντώνης Ρέμος)
TTITLE5=Σ΄εκδικήθηκα (Αντώνης Ρέμος)
TTITLE6=Συγνώμη (Αντώνης Ρέμος)
TTITLE7=Δυο ψέματα (Αντώνης Ρέμος)
TTITLE8=Φτάνει που ξέρω (Αντώνης Ρέμος)
TTITLE9=Μη με ρωτάς (Αντώνης Ρέμος)
EXTD=
EXTT0=
EXTT1=
EXTT2=
EXTT3=
EXTT4=
EXTT5=
EXTT6=
EXTT7=
EXTT8=
EXTT9=
PLAYORDER=
